<?xml version="1.0" encoding="UTF-8"?><svg id="Layer_2" xmlns="http://www.w3.org/2000/svg" viewBox="0 0 120.26 29.45"><defs><style>.cls-1{fill:aqua;}.cls-2{fill:#fff;}.cls-3{fill:red;}</style></defs><g id="Layer_1-2"><polygon class="cls-3" points="92.24 10.2 92.45 10.2 92.45 10.63 92.24 10.63 92.24 12.77 99.9 12.77 99.9 10.63 100.11 10.63 100.11 10.22 95 10.22 95 10.2 94.79 10.2 94.79 8.89 94.54 8.89 94.54 8.39 94.79 8.39 94.79 7.66 99.9 7.66 99.9 5.9 100.11 5.9 100.11 5.11 95 5.11 95 4.69 94.79 4.69 94.79 3.24 94.54 3.24 94.54 2.56 99.65 2.56 99.65 1.74 99.9 1.74 99.9 .79 100.11 .79 100.11 0 92.45 0 92.45 .79 92.24 .79 92.24 1.74 91.99 1.74 91.99 3.24 92.24 3.24 92.24 4.69 92.45 4.69 92.45 5.11 92.45 5.9 92.24 5.9 92.24 7.66 92.24 8.39 91.99 8.39 91.99 8.89 92.24 8.89 92.24 10.2"/><path class="cls-3" d="m63.24,7.66v1.33h.21v.8h-.21v.42c0,.54.14,1.02.42,1.43h-.25c.09.14.2.26.32.39.06.06.13.1.19.16h.25c.46.38,1,.58,1.63.58h5.11v-.58h-.25v-.54h.25v-1.43h-5.11v-.42h.21v-.8h-.21v-4.76h-.25v-.45h.25v-1.22h5.11v-.4h.21v-.81h-.21V0h-5.11c-.72,0-1.32.25-1.82.76-.18.18-.31.37-.42.58h.21c-.14.25-.23.52-.28.81h-.21c-.02.13-.04.26-.04.4v1.22h-.25v.45h.25v3.43Z"/><path class="cls-3" d="m42.6,11.2h.21v.29h-.21v1.29h2.55v-1.29h.21v-.29h-.21v-3.53h4.14v-.54h-.25v-2.01h-4.14v-.43h.25v-2.13h7V.49h.21V0h-9.56v.49h-.21v.85h-.25v.81h.25v2.53h-.25v2.44h.25v4.07Z"/><polygon class="cls-3" points="73.46 11.92 73.46 12.77 81.12 12.77 81.12 11.92 81.33 11.92 81.33 10.83 81.12 10.83 81.12 10.22 76.01 10.22 76.01 7.66 80.87 7.66 80.87 5.9 81.12 5.9 81.12 5.11 76.01 5.11 76.01 4.23 76.22 4.23 76.22 3.78 76.01 3.78 76.01 2.56 81.12 2.56 81.12 0 73.46 0 73.46 3.78 73.67 3.78 73.67 4.23 73.46 4.23 73.46 5.11 73.46 5.9 73.21 5.9 73.21 7.66 73.46 7.66 73.46 10.83 73.67 10.83 73.67 11.92 73.46 11.92"/><polygon class="cls-3" points="83.67 11.65 83.88 11.65 83.88 11.92 83.67 11.92 83.67 12.77 90.29 12.77 90.29 11.92 90.5 11.92 90.5 11.65 90.29 11.65 90.29 10.22 86.23 10.22 86.23 10.2 85.98 10.2 85.98 9.39 86.23 9.39 86.23 8.19 86.44 8.19 86.44 7.94 86.23 7.94 86.23 1.34 86.44 1.34 86.44 .4 86.23 .4 86.23 0 83.67 0 83.67 .4 83.88 .4 83.88 1.34 83.67 1.34 83.67 7.94 83.88 7.94 83.88 8.19 83.67 8.19 83.67 9.39 83.42 9.39 83.42 10.2 83.67 10.2 83.67 11.65"/><path class="cls-3" d="m102.77.76c-.49.49-.74,1.09-.74,1.8v.68h.21v.54h-.21v1.33c0,.72.25,1.32.74,1.82.49.49,1.1.74,1.82.74h2.55v.73h-.25s0,.99,0,.99h.25v.83h-5.11v1.56h.21v.5h-.21v.49h5.11c.57,0,1.07-.17,1.5-.49h.21c.1-.08.2-.15.3-.25.08-.08.15-.17.21-.25h-.21c.36-.44.55-.96.55-1.56v-.83h-.25s0-.99,0-.99h.25v-.73c0-.71-.25-1.3-.76-1.8-.49-.51-1.09-.76-1.8-.76h-2.55v-1.33h.21v-.54h-.21v-.68h5.11V0h-5.11c-.72,0-1.32.25-1.82.76Z"/><path class="cls-3" d="m118.71,9.13v-1.47c0-.39-.09-.74-.24-1.07h.21c-.12-.26-.29-.51-.52-.73-.02-.02-.04-.03-.06-.05h-.21c-.48-.46-1.06-.7-1.73-.7h-2.55v-.88h-.25v-.45h.25v-1.22h5.11V.79h-.25V0h-5.11c-.72,0-1.32.25-1.82.76-.01.01-.02.02-.03.03h.25c-.47.49-.71,1.07-.71,1.76v1.22h-.25v.45h.25v.88c0,.25.04.48.1.7h.21c.08.28.19.54.36.78h-.21c.08.11.17.23.27.33.49.49,1.1.74,1.82.74h2.55v1.47h.21v.66h-.21v.42h-5.11v1.27h.21v.16h-.21v1.12h5.11c.7,0,1.3-.25,1.8-.74.13-.12.23-.25.33-.39h.21c.04-.05.06-.11.09-.16h-.21c.22-.38.34-.79.34-1.27v-.42h.21v-.66h-.21Z"/><polygon class="cls-3" points="60.51 4.69 60.51 0 56.98 0 56.98 0 56.39 0 54.04 4.68 53.72 4.68 52.49 7.12 52.81 7.12 51.87 8.99 52.18 8.99 51.99 9.38 51.67 9.38 49.97 12.77 52.8 12.77 54.51 9.38 54.71 9.38 54.91 8.99 54.71 8.99 55.65 7.12 55.44 7.12 56.67 4.68 56.87 4.68 57.95 2.54 57.95 4.69 58.26 4.69 58.26 5.37 57.95 5.37 57.95 7.66 55.95 7.66 55.95 10.22 57.95 10.22 57.95 11.65 57.7 11.65 57.7 12.19 57.95 12.19 57.95 12.77 60.51 12.77 60.51 12.19 60.23 12.19 60.23 11.65 60.51 11.65 60.51 5.37 60.79 5.37 60.79 4.69 60.51 4.69"/><polygon class="cls-1" points="93.57 10.2 93.78 10.2 93.78 10.63 93.57 10.63 93.57 12.77 101.23 12.77 101.23 10.63 101.44 10.63 101.44 10.22 96.33 10.22 96.33 10.2 96.12 10.2 96.12 8.89 95.87 8.89 95.87 8.39 96.12 8.39 96.12 7.66 101.23 7.66 101.23 5.9 101.44 5.9 101.44 5.11 96.33 5.11 96.33 4.69 96.12 4.69 96.12 3.24 95.87 3.24 95.87 2.56 100.98 2.56 100.98 1.74 101.23 1.74 101.23 .79 101.44 .79 101.44 0 93.78 0 93.78 .79 93.57 .79 93.57 1.74 93.32 1.74 93.32 3.24 93.57 3.24 93.57 4.69 93.78 4.69 93.78 5.11 93.78 5.9 93.57 5.9 93.57 7.66 93.57 8.39 93.32 8.39 93.32 8.89 93.57 8.89 93.57 10.2"/><path class="cls-1" d="m64.57,7.66v1.33h.21v.8h-.21v.42c0,.54.14,1.02.42,1.43h-.25c.09.14.2.26.32.39.06.06.13.1.19.16h.25c.46.38,1,.58,1.63.58h5.11v-.58h-.25v-.54h.25v-1.43h-5.11v-.42h.21v-.8h-.21v-4.76h-.25v-.45h.25v-1.22h5.11v-.4h.21v-.81h-.21V0h-5.11c-.72,0-1.32.25-1.82.76-.18.18-.31.37-.42.58h.21c-.14.25-.23.52-.28.81h-.21c-.02.13-.04.26-.04.4v1.22h-.25v.45h.25v3.43Z"/><path class="cls-1" d="m43.94,11.2h.21v.29h-.21s0,1.29,0,1.29h2.55v-1.29h.21v-.29h-.21v-3.53h4.14v-.54h-.25v-2.01h-4.14v-.43h.25v-2.13h7V.49h.21V0h-9.56v.49h-.21v.85h-.25v.81h.25v2.53h-.25v2.44h.25v4.07Z"/><polygon class="cls-1" points="74.79 11.92 74.79 12.77 82.45 12.77 82.45 11.92 82.66 11.92 82.66 10.83 82.45 10.83 82.45 10.22 77.34 10.22 77.34 7.66 82.2 7.66 82.2 5.9 82.45 5.9 82.45 5.11 77.34 5.11 77.34 4.23 77.55 4.23 77.55 3.78 77.34 3.78 77.34 2.56 82.45 2.56 82.45 0 74.79 0 74.79 3.78 75 3.78 75 4.23 74.79 4.23 74.79 5.11 74.79 5.9 74.54 5.9 74.54 7.66 74.79 7.66 74.79 10.83 75 10.83 75 11.92 74.79 11.92"/><polygon class="cls-1" points="85.01 11.65 85.22 11.65 85.22 11.92 85.01 11.92 85.01 12.77 91.62 12.77 91.62 11.92 91.83 11.92 91.83 11.65 91.62 11.65 91.62 10.22 87.56 10.22 87.56 10.2 87.31 10.2 87.31 9.39 87.56 9.39 87.56 8.19 87.77 8.19 87.77 7.94 87.56 7.94 87.56 1.34 87.77 1.34 87.77 .4 87.56 .4 87.56 0 85.01 0 85.01 .4 85.22 .4 85.22 1.34 85.01 1.34 85.01 7.94 85.22 7.94 85.22 8.19 85.01 8.19 85.01 9.39 84.76 9.39 84.76 10.2 85.01 10.2 85.01 11.65"/><path class="cls-1" d="m104.1.76c-.49.49-.74,1.09-.74,1.8v.68h.21v.54h-.21v1.33c0,.72.25,1.32.74,1.82.49.49,1.1.74,1.82.74h2.55v.73h-.25v.99h.25v.83h-5.11v1.56h.21v.5h-.21v.49h5.11c.57,0,1.07-.17,1.5-.49h.21c.1-.08.2-.15.3-.25.08-.08.15-.17.21-.25h-.21c.36-.44.55-.96.55-1.56v-.83h-.25v-.99h.25v-.73c0-.71-.25-1.3-.76-1.8-.49-.51-1.09-.76-1.8-.76h-2.55v-1.33h.21v-.54h-.21v-.68h5.11V0h-5.11c-.72,0-1.32.25-1.82.76Z"/><path class="cls-1" d="m120.05,9.13v-1.47c0-.39-.09-.74-.24-1.07h.21c-.12-.26-.29-.51-.52-.73-.02-.02-.04-.03-.06-.05h-.21c-.48-.46-1.06-.7-1.73-.7h-2.55v-.88h-.25v-.45h.25v-1.22h5.11V.79h-.25V0h-5.11c-.72,0-1.32.25-1.82.76-.01.01-.02.02-.03.03h.25c-.47.49-.71,1.07-.71,1.76v1.22h-.25v.45h.25v.88c0,.25.04.48.1.7h.21c.08.28.19.54.36.78h-.21c.08.11.17.23.27.33.49.49,1.1.74,1.82.74h2.55v1.47h.21v.66h-.21v.42h-5.11v1.27h.21v.16h-.21v1.12h5.11c.7,0,1.3-.25,1.8-.74.13-.12.23-.25.33-.39h.21c.04-.05.06-.11.09-.16h-.21c.22-.38.34-.79.34-1.27v-.42h.21v-.66h-.21Z"/><polygon class="cls-1" points="61.84 4.69 61.84 0 58.32 0 58.32 0 57.73 0 55.37 4.68 55.05 4.68 53.82 7.12 54.14 7.12 53.21 8.99 53.52 8.99 53.32 9.39 53.01 9.39 51.3 12.77 54.14 12.77 55.84 9.39 56.05 9.39 56.25 8.99 56.04 8.99 56.98 7.12 56.78 7.12 58.01 4.68 58.21 4.68 59.28 2.54 59.28 4.69 59.6 4.69 59.6 5.37 59.28 5.37 59.28 7.66 57.28 7.66 57.28 10.22 59.28 10.22 59.28 11.65 59.03 11.65 59.03 12.19 59.28 12.19 59.28 12.77 61.84 12.77 61.84 12.19 61.56 12.19 61.56 11.65 61.84 11.65 61.84 5.37 62.12 5.37 62.12 4.69 61.84 4.69"/><polygon class="cls-2" points="92.92 10.2 93.13 10.2 93.13 10.63 92.92 10.63 92.92 12.77 100.58 12.77 100.58 10.63 100.79 10.63 100.79 10.22 95.69 10.22 95.69 10.2 95.48 10.2 95.48 8.89 95.23 8.89 95.23 8.39 95.48 8.39 95.48 7.66 100.58 7.66 100.58 5.9 100.79 5.9 100.79 5.11 95.69 5.11 95.69 4.69 95.48 4.69 95.48 3.24 95.23 3.24 95.23 2.56 100.33 2.56 100.33 1.74 100.58 1.74 100.58 .79 100.79 .79 100.79 0 93.13 0 93.13 .79 92.92 .79 92.92 1.74 92.67 1.74 92.67 3.24 92.92 3.24 92.92 4.69 93.13 4.69 93.13 5.11 93.13 5.9 92.92 5.9 92.92 7.66 92.92 8.39 92.67 8.39 92.67 8.89 92.92 8.89 92.92 10.2"/><path class="cls-2" d="m63.93,7.66v1.33h.21v.8h-.21v.42c0,.54.14,1.02.42,1.43h-.25c.09.14.2.26.32.39.06.06.13.1.19.16h.25c.46.38,1,.58,1.63.58h5.11v-.58h-.25v-.54h.25v-1.43h-5.11v-.42h.21v-.8h-.21v-4.76h-.25v-.45h.25v-1.22h5.11v-.4h.21v-.81h-.21V0h-5.11c-.72,0-1.32.25-1.82.76-.18.18-.31.37-.42.58h.21c-.14.25-.23.52-.28.81h-.21c-.02.13-.04.26-.04.4v1.22h-.25v.45h.25v3.43Z"/><path class="cls-2" d="m43.29,11.2h.21v.29h-.21v1.29h2.55v-1.29h.21v-.29h-.21v-3.53h4.14v-.54h-.25v-2.01h-4.14v-.43h.25v-2.13h7V.49h.21V0h-9.56v.49h-.21v.85h-.25v.81h.25v2.53h-.25v2.44h.25v4.07Z"/><polygon class="cls-2" points="74.14 11.92 74.14 12.77 81.8 12.77 81.8 11.92 82.01 11.92 82.01 10.83 81.8 10.83 81.8 10.22 76.7 10.22 76.7 7.66 81.55 7.66 81.55 5.9 81.8 5.9 81.8 5.11 76.7 5.11 76.7 4.23 76.91 4.23 76.91 3.78 76.7 3.78 76.7 2.56 81.8 2.56 81.8 0 74.14 0 74.14 3.78 74.35 3.78 74.35 4.23 74.14 4.23 74.14 5.11 74.14 5.9 73.89 5.9 73.89 7.66 74.14 7.66 74.14 10.83 74.35 10.83 74.35 11.92 74.14 11.92"/><polygon class="cls-2" points="84.36 11.65 84.57 11.65 84.57 11.92 84.36 11.92 84.36 12.77 90.98 12.77 90.98 11.92 91.19 11.92 91.19 11.65 90.98 11.65 90.98 10.22 86.91 10.22 86.91 10.2 86.66 10.2 86.66 9.39 86.91 9.39 86.91 8.19 87.12 8.19 87.12 7.94 86.91 7.94 86.91 1.34 87.12 1.34 87.12 .4 86.91 .4 86.91 0 84.36 0 84.36 .4 84.57 .4 84.57 1.34 84.36 1.34 84.36 7.94 84.57 7.94 84.57 8.19 84.36 8.19 84.36 9.39 84.11 9.39 84.11 10.2 84.36 10.2 84.36 11.65"/><path class="cls-2" d="m103.45.76c-.49.49-.74,1.09-.74,1.8v.68h.21v.54h-.21v1.33c0,.72.25,1.32.74,1.82.49.49,1.1.74,1.82.74h2.55v.73h-.25v.99h.25v.83h-5.11v1.56h.21v.5h-.21v.49h5.11c.57,0,1.07-.17,1.5-.49h.21c.1-.08.2-.15.3-.25.08-.08.15-.17.21-.25h-.21c.36-.44.55-.96.55-1.56v-.83h-.25v-.99h.25s0-.73,0-.73c0-.71-.25-1.3-.76-1.8-.49-.51-1.09-.76-1.8-.76h-2.55v-1.33h.21v-.54h-.21v-.68h5.11V0h-5.11c-.72,0-1.32.25-1.82.76Z"/><path class="cls-2" d="m119.4,9.13v-1.47c0-.39-.09-.74-.24-1.07h.21c-.12-.26-.29-.51-.52-.73-.02-.02-.04-.03-.06-.05h-.21c-.48-.46-1.06-.7-1.73-.7h-2.55v-.88h-.25v-.45h.25v-1.22h5.11V.79h-.25V0h-5.11c-.72,0-1.32.25-1.82.76-.01.01-.02.02-.03.03h.25c-.47.49-.71,1.07-.71,1.76v1.22h-.25v.45h.25v.88c0,.25.04.48.1.7h.21c.08.28.19.54.36.78h-.21c.08.11.17.23.27.33.49.49,1.1.74,1.82.74h2.55v1.47h.21v.66h-.21v.42h-5.11v1.27h.21s0,.16,0,.16h-.21v1.12h5.11c.7,0,1.3-.25,1.8-.74.13-.12.23-.25.33-.39h.21c.04-.05.06-.11.09-.16h-.21c.22-.38.34-.79.34-1.27v-.42h.21v-.66h-.21Z"/><polygon class="cls-2" points="61.18 4.69 61.18 0 57.66 0 57.66 0 57.07 0 54.71 4.68 54.39 4.68 53.16 7.12 53.49 7.12 52.55 8.99 52.86 8.99 52.66 9.38 52.35 9.38 50.64 12.77 53.48 12.77 55.18 9.38 55.39 9.38 55.59 8.99 55.38 8.99 56.32 7.12 56.12 7.12 57.35 4.68 57.55 4.68 58.63 2.54 58.63 4.69 58.94 4.69 58.94 5.37 58.63 5.37 58.63 7.66 56.62 7.66 56.62 10.22 58.63 10.22 58.63 11.65 58.37 11.65 58.37 12.19 58.63 12.19 58.63 12.77 61.18 12.77 61.18 12.19 60.9 12.19 60.9 11.65 61.18 11.65 61.18 5.37 61.46 5.37 61.46 4.69 61.18 4.69"/><polygon class="cls-1" points="9.18 8.44 1.66 8.44 3.14 12.57 10.47 12.57 9.18 8.44"/><polygon class="cls-1" points="10.77 23.78 7.79 26.08 9.97 26.08 12.36 26.08 14.57 26.08 15.29 23.78 12.1 23.78 10.77 23.78"/><polygon class="cls-1" points="10.34 27.32 11.92 29.45 13.52 29.45 14.19 27.32 12.71 27.32 10.34 27.32"/><polygon class="cls-1" points="34.7 8.44 37.29 0 17.87 0 20.08 8.44 13.52 8.44 16.89 18.65 12.63 18.65 9.5 21.01 23.52 21.01 26.12 12.57 18.79 12.57 20.09 8.42 20.09 8.44 34.7 8.44"/><polygon class="cls-3" points="7.51 8.44 0 8.44 1.47 12.57 8.8 12.57 7.51 8.44"/><polygon class="cls-3" points="9.1 23.78 6.13 26.08 8.31 26.08 10.69 26.08 12.91 26.08 13.63 23.78 10.43 23.78 9.1 23.78"/><polygon class="cls-3" points="8.68 27.32 10.25 29.45 11.86 29.45 12.52 27.32 11.04 27.32 8.68 27.32"/><polygon class="cls-3" points="33.03 8.44 35.62 0 16.2 0 18.42 8.44 11.85 8.44 15.23 18.65 10.96 18.65 7.84 21.01 21.85 21.01 24.46 12.57 17.13 12.57 18.43 8.42 18.43 8.44 33.03 8.44"/><polygon class="cls-2" points="8.33 8.44 .82 8.44 2.29 12.57 9.62 12.57 8.33 8.44"/><polygon class="cls-2" points="9.92 23.78 6.94 26.08 9.13 26.08 11.51 26.08 13.73 26.08 14.44 23.78 11.25 23.78 9.92 23.78"/><polygon class="cls-2" points="9.49 27.32 11.07 29.45 12.68 29.45 13.34 27.32 11.86 27.32 9.49 27.32"/><polygon class="cls-2" points="33.85 8.44 36.44 0 17.02 0 19.24 8.44 12.67 8.44 16.04 18.65 11.78 18.65 8.65 21.01 22.67 21.01 25.27 12.57 17.94 12.57 19.24 8.42 19.24 8.44 33.85 8.44"/><polygon class="cls-3" points="42.57 27.24 42.78 27.24 42.78 27.51 42.57 27.51 42.57 28.36 49.19 28.36 49.19 27.51 49.4 27.51 49.4 27.24 49.19 27.24 49.19 25.81 45.13 25.81 45.13 25.79 44.88 25.79 44.88 24.97 45.13 24.97 45.13 23.78 45.34 23.78 45.34 23.53 45.13 23.53 45.13 16.93 45.34 16.93 45.34 15.99 45.13 15.99 45.13 15.59 42.57 15.59 42.57 15.99 42.78 15.99 42.78 16.93 42.57 16.93 42.57 23.53 42.78 23.53 42.78 23.78 42.57 23.78 42.57 24.97 42.32 24.97 42.32 25.79 42.57 25.79 42.57 27.24"/><polygon class="cls-1" points="43.91 27.24 44.12 27.24 44.12 27.51 43.91 27.51 43.91 28.36 50.53 28.36 50.53 27.51 50.74 27.51 50.74 27.24 50.53 27.24 50.53 25.81 46.46 25.81 46.46 25.79 46.21 25.79 46.21 24.97 46.46 24.97 46.46 23.78 46.67 23.78 46.67 23.53 46.46 23.53 46.46 16.93 46.67 16.93 46.67 15.99 46.46 15.99 46.46 15.59 43.91 15.59 43.91 15.99 44.12 15.99 44.12 16.93 43.91 16.93 43.91 23.53 44.12 23.53 44.12 23.78 43.91 23.78 43.91 24.97 43.66 24.97 43.66 25.79 43.91 25.79 43.91 27.24"/><polygon class="cls-2" points="43.26 27.24 43.47 27.24 43.47 27.51 43.26 27.51 43.26 28.36 49.88 28.36 49.88 27.51 50.09 27.51 50.09 27.24 49.88 27.24 49.88 25.81 45.81 25.81 45.81 25.79 45.56 25.79 45.56 24.97 45.81 24.97 45.81 23.78 46.02 23.78 46.02 23.53 45.81 23.53 45.81 16.93 46.02 16.93 46.02 15.99 45.81 15.99 45.81 15.59 43.26 15.59 43.26 15.99 43.47 15.99 43.47 16.93 43.26 16.93 43.26 23.53 43.47 23.53 43.47 23.78 43.26 23.78 43.26 24.97 43.01 24.97 43.01 25.79 43.26 25.79 43.26 27.24"/><path class="cls-3" d="m81.79,24.72v-1.47c0-.39-.09-.74-.24-1.07h.21c-.12-.26-.29-.51-.52-.73-.02-.02-.04-.03-.06-.05h-.21c-.48-.46-1.06-.7-1.73-.7h-2.55v-.88h-.25v-.45h.25v-1.22h5.11v-1.76h-.25v-.79h-5.11c-.72,0-1.32.25-1.82.76-.01.01-.02.02-.03.03h.25c-.47.49-.71,1.07-.71,1.76v1.22h-.25v.45h.25v.88c0,.25.04.48.1.7h.21c.08.28.19.54.36.78h-.21c.08.11.17.23.27.33.49.49,1.1.74,1.82.74h2.55v1.47h.21v.66h-.21v.42h-5.11v1.27h.21v.16h-.21v1.12h5.11c.7,0,1.3-.25,1.8-.74.13-.12.23-.25.33-.39h.21c.04-.05.06-.11.09-.16h-.21c.22-.38.34-.79.34-1.27v-.42h.21v-.66h-.21Z"/><path class="cls-1" d="m83.13,24.72v-1.47c0-.39-.09-.74-.24-1.07h.21c-.12-.26-.29-.51-.52-.73-.02-.02-.04-.03-.06-.05h-.21c-.48-.46-1.06-.7-1.73-.7h-2.55v-.88h-.25v-.45h.25v-1.22h5.11v-1.76h-.25v-.79h-5.11c-.72,0-1.32.25-1.82.76-.01.01-.02.02-.03.03h.25c-.47.49-.71,1.07-.71,1.76v1.22h-.25v.45h.25v.88c0,.25.04.48.1.7h.21c.08.28.19.54.36.78h-.21c.08.11.17.23.27.33.49.49,1.1.74,1.82.74h2.55v1.47h.21v.66h-.21v.42h-5.11v1.27h.21v.16h-.21v1.12h5.11c.7,0,1.3-.25,1.8-.74.13-.12.23-.25.33-.39h.21c.04-.05.06-.11.09-.16h-.21c.22-.38.34-.79.34-1.27v-.42h.21v-.66h-.21Z"/><path class="cls-2" d="m82.48,24.72v-1.47c0-.39-.09-.74-.24-1.07h.21c-.12-.26-.29-.51-.52-.73-.02-.02-.04-.03-.06-.05h-.21c-.48-.46-1.06-.7-1.73-.7h-2.55v-.88h-.25v-.45h.25v-1.22h5.11v-1.76h-.25v-.79h-5.11c-.72,0-1.32.25-1.82.76-.01.01-.02.02-.03.03h.25c-.47.49-.71,1.07-.71,1.76v1.22h-.25v.45h.25v.88c0,.25.04.48.1.7h.21c.08.28.19.54.36.78h-.21c.08.11.17.23.27.33.49.49,1.1.74,1.82.74h2.55v1.47h.21v.66h-.21v.42h-5.11v1.27h.21s0,.16,0,.16h-.21v1.12h5.11c.7,0,1.3-.25,1.8-.74.13-.12.23-.25.33-.39h.21c.04-.05.06-.11.09-.16h-.21c.22-.38.34-.79.34-1.27v-.42h.21v-.66h-.21Z"/><polygon class="cls-3" points="61.94 20.28 61.94 15.59 58.42 15.59 58.42 15.59 57.83 15.59 55.47 20.27 55.15 20.27 53.92 22.71 54.24 22.71 53.31 24.58 53.62 24.58 53.42 24.97 53.11 24.97 51.4 28.36 54.24 28.36 55.94 24.97 56.15 24.97 56.35 24.58 56.14 24.58 57.08 22.71 56.88 22.71 58.11 20.27 58.31 20.27 59.38 18.13 59.38 20.28 59.7 20.28 59.7 20.96 59.38 20.96 59.38 23.25 57.38 23.25 57.38 25.81 59.38 25.81 59.38 27.23 59.13 27.23 59.13 27.78 59.38 27.78 59.38 28.36 61.94 28.36 61.94 27.78 61.66 27.78 61.66 27.23 61.94 27.23 61.94 20.96 62.22 20.96 62.22 20.28 61.94 20.28"/><polygon class="cls-1" points="63.27 20.28 63.27 15.59 59.75 15.59 59.75 15.59 59.16 15.59 56.81 20.27 56.48 20.27 55.26 22.71 55.58 22.71 54.64 24.58 54.95 24.58 54.75 24.97 54.44 24.97 52.74 28.36 55.57 28.36 57.28 24.97 57.48 24.97 57.68 24.58 57.48 24.58 58.41 22.71 58.21 22.71 59.44 20.27 59.64 20.27 60.72 18.13 60.72 20.28 61.03 20.28 61.03 20.96 60.72 20.96 60.72 23.25 58.72 23.25 58.72 25.81 60.72 25.81 60.72 27.24 60.47 27.24 60.47 27.78 60.72 27.78 60.72 28.36 63.27 28.36 63.27 27.78 62.99 27.78 62.99 27.24 63.27 27.24 63.27 20.96 63.55 20.96 63.55 20.28 63.27 20.28"/><polygon class="cls-2" points="62.62 20.28 62.62 15.59 59.09 15.59 59.09 15.59 58.5 15.59 56.15 20.27 55.83 20.27 54.6 22.71 54.92 22.71 53.98 24.58 54.29 24.58 54.1 24.97 53.78 24.97 52.08 28.36 54.91 28.36 56.62 24.97 56.82 24.97 57.02 24.58 56.82 24.58 57.76 22.71 57.55 22.71 58.78 20.27 58.98 20.27 60.06 18.13 60.06 20.28 60.37 20.28 60.37 20.96 60.06 20.96 60.06 23.25 58.06 23.25 58.06 25.81 60.06 25.81 60.06 27.23 59.81 27.23 59.81 27.78 60.06 27.78 60.06 28.36 62.62 28.36 62.62 27.78 62.34 27.78 62.34 27.23 62.62 27.23 62.62 20.96 62.9 20.96 62.9 20.28 62.62 20.28"/><path class="cls-1" d="m73.43,17.72c-.02-.15-.06-.29-.11-.43h-.19c-.12-.35-.32-.66-.61-.94-.49-.51-1.09-.76-1.79-.76h-5.11v1.7h.19v.43h-.19v4.26h-.23v1.01h.23v2.39h-.23v.88h.23v1.05h.19v.22h-.19v.83h5.11c.71,0,1.31-.25,1.79-.76.29-.28.48-.6.61-.94.04-.13.08-.27.11-.43.02-.14.04-.28.04-.43v-2.55c0-.48-.12-.9-.35-1.28h0c.22-.38.35-.8.35-1.28v-2.55c0-.15-.02-.29-.04-.43h.19Zm-5.27.43h2.56v2.55h-2.56v-2.55Zm2.56,7.66h-2.56v-2.55h2.56v2.55Z"/><path class="cls-3" d="m72.21,17.72c-.02-.15-.06-.29-.11-.43h-.19c-.12-.35-.32-.66-.61-.94-.49-.51-1.09-.76-1.79-.76h-5.11v1.7h.19v.43h-.19v4.26h-.23v1.01h.23v2.39h-.23v.88h.23v1.05h.19v.22h-.19v.83h5.11c.71,0,1.31-.25,1.79-.76.29-.28.48-.6.61-.94.04-.13.08-.27.11-.43.02-.14.04-.28.04-.43v-2.55c0-.48-.12-.9-.35-1.28h0c.22-.38.35-.8.35-1.28v-2.55c0-.15-.02-.29-.04-.43h.19Zm-5.27.43h2.56v2.55h-2.56v-2.55Zm2.56,7.66h-2.56v-2.55h2.56v2.55Z"/><path class="cls-2" d="m72.84,17.72c-.02-.15-.06-.29-.11-.43h-.19c-.12-.35-.32-.66-.61-.94-.49-.51-1.09-.76-1.79-.76h-5.11v1.7h.19v.43h-.19v4.26h-.23v1.01h.23v2.39h-.23v.88h.23v1.05h.19v.22h-.19v.83h5.11c.71,0,1.31-.25,1.79-.76.29-.28.48-.6.61-.94.04-.13.08-.27.11-.43.02-.14.04-.28.04-.43v-2.55c0-.48-.12-.9-.35-1.28h0c.22-.38.35-.8.35-1.28v-2.55c0-.15-.02-.29-.04-.43h.19Zm-5.27.43h2.56v2.55h-2.56v-2.55Zm2.56,7.66h-2.56v-2.55h2.56v2.55Z"/></g></svg>