<?xml version="1.0" encoding="UTF-8"?><svg id="Layer_2" xmlns="http://www.w3.org/2000/svg" xmlns:xlink="http://www.w3.org/1999/xlink" viewBox="0 0 513.46 192.19"><defs><style>.cls-1{fill:url(#linear-gradient);}.cls-2{fill:#fff;}.cls-3{fill:#ff4300;}</style><linearGradient id="linear-gradient" x1="142.09" y1="85.41" x2="142.09" y2="192.19" gradientUnits="userSpaceOnUse"><stop offset="0" stop-color="#ff4300"/><stop offset="1" stop-color="#ffb400"/></linearGradient></defs><g id="Layer_1-2"><path class="cls-2" d="m23.89,108.6v22.78c0,1.24,1.01,2.25,2.25,2.25h43.28c1.24,0,2.25,1.01,2.25,2.25v14.67c0,1.24-1.01,2.25-2.25,2.25H26.15c-1.24,0-2.25,1.01-2.25,2.25v33.11c0,1.24-1.01,2.25-2.25,2.25H2.25C1.01,190.42,0,189.42,0,188.17v-98.74C0,88.19,1.01,87.18,2.25,87.18h73.52c1.24,0,2.25,1.01,2.25,2.25v14.67c0,1.24-1.01,2.25-2.25,2.25H26.15c-1.24,0-2.25,1.01-2.25,2.25Z"/><path class="cls-2" d="m277.53,189.45l-18.57-26.82c-.42-.61-1.11-.97-1.85-.97h-18.54c-1.24,0-2.25,1.01-2.25,2.25v24.26c0,1.24-1.01,2.25-2.25,2.25h-19.39c-1.24,0-2.25-1.01-2.25-2.25v-98.74c0-1.24,1.01-2.25,2.25-2.25h42.44c27.58,0,44.84,14.31,44.84,37.46,0,14.55-6.9,25.45-18.86,31.49-1.23.62-1.64,2.17-.85,3.3l19.16,27.45c1.04,1.49-.03,3.54-1.85,3.54h-20.17c-.74,0-1.43-.36-1.85-.97Zm-21.75-82.8h-17.22c-1.24,0-2.25,1.01-2.25,2.25v31.48c0,1.24,1.01,2.25,2.25,2.25h17.22c14.6,0,21.98-6.78,21.98-17.99s-7.37-17.99-21.98-17.99Z"/><path class="cls-2" d="m513.46,173.5v14.67c0,1.24-1.01,2.25-2.25,2.25h-75.44c-1.24,0-2.25-1.01-2.25-2.25v-98.74c0-1.24,1.01-2.25,2.25-2.25h73.52c1.24,0,2.25,1.01,2.25,2.25v14.67c0,1.24-1.01,2.25-2.25,2.25h-49.77c-1.24,0-2.25,1.01-2.25,2.25v17.92c0,1.24,1.01,2.25,2.25,2.25h43.43c1.24,0,2.25,1.01,2.25,2.25v14.08c0,1.24-1.01,2.25-2.25,2.25h-43.43c-1.24,0-2.25,1.01-2.25,2.25v19.39c0,1.24,1.01,2.25,2.25,2.25h51.69c1.24,0,2.25,1.01,2.25,2.25Z"/><path class="cls-1" d="m85.6,138.8c0-30.68,23.89-53.39,56.49-53.39s56.49,22.57,56.49,53.39-24.04,53.39-56.49,53.39-56.49-22.71-56.49-53.39Zm88.79,0c0-19.62-13.86-33.04-32.3-33.04s-32.3,13.42-32.3,33.04,13.86,33.04,32.3,33.04,32.3-13.42,32.3-33.04Z"/><path class="cls-3" d="m8.9,9.33v19.97c0,.48.39.87.87.87h29.5c.48,0,.87.39.87.87v5.91c0,.48-.39.87-.87.87H9.78c-.48,0-.87.39-.87.87v23.45c0,.48-.39.87-.87.87H.87c-.48,0-.87-.39-.87-.87V1.59c0-.48.39-.87.87-.87h42.23c.48,0,.87.39.87.87v6c0,.48-.39.87-.87.87H9.78c-.48,0-.87.39-.87.87Z"/><path class="cls-3" d="m50.74,31.87C50.74,13.62,64.81,0,83.94,0s33.03,13.53,33.03,31.87-14.06,31.87-33.03,31.87-33.2-13.62-33.2-31.87Zm56.92,4.68c2.98-16.52-11.77-31.05-28.32-28.24-11.58,1.97-19.7,11.33-19.7,23.56,0,13.8,10.33,23.95,24.3,23.95,12.19,0,21.66-7.92,23.71-19.27Z"/><path class="cls-3" d="m130.06,36.14V1.59c0-.48.39-.87.87-.87h7.15c.48,0,.87.39.87.87v34.2c0,13.8,6.32,20.03,17.54,20.03s17.63-6.23,17.63-20.03V1.59c0-.48.39-.87.87-.87h6.89c.48,0,.87.39.87.87v34.56c0,18.07-9.88,27.6-26.35,27.6s-26.35-9.53-26.35-27.6Z"/><path class="cls-3" d="m254.59,1.59v60.57c0,.48-.39.87-.87.87h-6.01c-.26,0-.51-.12-.68-.33l-35.57-44.21c-.52-.64-1.55-.28-1.55.55v43.12c0,.48-.39.87-.87.87h-7.16c-.48,0-.87-.39-.87-.87V1.59c0-.48.39-.87.87-.87h6.01c.26,0,.51.12.68.33l35.57,44.21c.52.64,1.55.28,1.55-.55V1.59c0-.48.39-.87.87-.87h7.16c.48,0,.87.39.87.87Z"/><path class="cls-3" d="m273.28,1.59c0-.48.39-.87.87-.87h25.39c20.03,0,33.65,12.64,33.65,31.16s-13.62,31.16-33.65,31.16h-25.39c-.48,0-.87-.39-.87-.87V1.59Zm25.73,53.7c15.4,0,25.28-9.44,25.28-23.41s-9.88-23.41-25.28-23.41h-15.95c-.48,0-.87.39-.87.87v45.08c0,.48.39.87.87.87h15.95Z"/><path class="cls-3" d="m392.04,56.15v6c0,.48-.39.87-.87.87h-43.48c-.48,0-.87-.39-.87-.87V1.59c0-.48.39-.87.87-.87h42.23c.48,0,.87.39.87.87v6c0,.48-.39.87-.87.87h-33.33c-.48,0-.87.39-.87.87v17.39c0,.48.39.87.87.87h29.5c.48,0,.87.39.87.87v5.82c0,.48-.39.87-.87.87h-29.5c-.48,0-.87.39-.87.87v18.37c0,.48.39.87.87.87h34.57c.48,0,.87.39.87.87Z"/><path class="cls-3" d="m447.86,62.65l-12.9-18.36c-.18-.25-.47-.39-.77-.37-1.1.08-2.27.14-3.43.14h-14.53c-.48,0-.87.39-.87.87v17.21c0,.48-.39.87-.87.87h-7.16c-.48,0-.87-.39-.87-.87V1.59c0-.48.39-.87.87-.87h23.43c16.2,0,25.99,8.19,25.99,21.72,0,9.22-4.59,15.99-12.66,19.27-.53.21-.73.85-.4,1.32l13.16,18.62c.41.58,0,1.38-.71,1.38h-7.56c-.28,0-.55-.14-.71-.37Zm0-40.22c0-8.9-5.96-13.98-17.36-13.98h-14.26c-.48,0-.87.39-.87.87v26.29c0,.48.39.87.87.87h14.26c11.39,0,17.36-5.16,17.36-14.06Z"/><path class="cls-3" d="m465.76,55.31l2.52-5.32c.24-.5.89-.67,1.32-.32,4.71,3.81,12.18,6.5,19.73,6.5,10.77,0,15.4-4.18,15.4-9.61,0-15.22-37.74-5.61-37.74-28.75,0-9.61,7.48-17.8,23.86-17.8,7.02,0,14.29,1.81,19.43,5.12.35.23.48.68.32,1.07l-2.27,5.51c-.2.5-.8.68-1.26.41-5.21-3.1-10.99-4.54-16.22-4.54-10.59,0-15.13,4.45-15.13,9.88,0,15.22,37.74,5.7,37.74,28.58,0,9.53-7.66,17.71-24.12,17.71-9.22,0-18.28-3-23.37-7.4-.3-.26-.37-.68-.21-1.03Z"/><path class="cls-2" d="m372.39,105.76c9.79,0,18.03,3.22,25.21,10.15.85.82,2.21.83,3.08.03l12.1-11.17c.93-.86.96-2.31.09-3.23-10-10.55-24.44-16.14-41.67-16.14-32.89,0-56.78,22.27-56.78,53.39s23.89,53.39,56.34,53.39c14.35,0,29.55-4.33,40.82-12.45.58-.42.92-1.11.92-1.83v-38.49c0-1.24-1.01-2.25-2.25-2.25h-35.46c-1.31,0-2.37,1.06-2.37,2.37v16.05c0,1.31,1.06,2.37,2.37,2.37h15.88v8.08c0,.84-.47,1.63-1.22,2.01-5.64,2.77-11.31,3.8-17.36,3.8-19.76,0-33.48-13.72-33.48-33.04s13.72-33.04,33.78-33.04Z"/></g></svg>